<?xml version="1.0" encoding="utf-8"?>
<!-- Generator: Adobe Illustrator 16.0.3, SVG Export Plug-In . SVG Version: 6.00 Build 0)  -->
<!DOCTYPE svg PUBLIC "-//W3C//DTD SVG 1.1//EN" "http://www.w3.org/Graphics/SVG/1.1/DTD/svg11.dtd">
<svg version="1.1" id="Layer_1" xmlns="http://www.w3.org/2000/svg" xmlns:xlink="http://www.w3.org/1999/xlink" x="0px" y="0px"
	 width="178.261px" height="253.261px" viewBox="0 0 178.261 253.261" enable-background="new 0 0 178.261 253.261"
	 xml:space="preserve">
<g>
	<path d="M58.183,88.112l-3.235-0.15v31.26H44.866V53.016H61.53c3.461,0,6.043,0.696,7.749,2.087
		c1.705,1.392,2.827,3.335,3.367,5.831c0.539,2.496,0.809,5.755,0.809,9.78c0,4.025-0.427,7.091-1.279,9.197
		c-0.853,2.107-2.433,3.524-4.74,4.251c2.282,0.401,3.875,1.943,4.777,4.627c0.902,2.684,1.354,8.27,1.354,16.758
		c0,8.489,0.125,13.047,0.376,13.674h-10.08c-0.251-0.502-0.376-8.413-0.376-23.736c0-2.934-0.351-4.883-1.053-5.85
		C61.731,88.67,60.314,88.163,58.183,88.112z M54.985,80.138h4.025c1.279,0,2.225-0.288,2.84-0.865
		c0.614-0.577,1.041-1.567,1.279-2.972c0.238-1.404,0.357-3.548,0.357-6.433v-0.414c0-3.586-0.301-5.931-0.903-7.035
		c-0.602-1.103-1.994-1.655-4.175-1.655h-3.423V80.138z"/>
	<path d="M87.087,119.221V53.016h10.081v66.205H87.087z"/>
	<path d="M117.796,119.221V92.777l-11.096-39.761h9.629l6.545,24.751h0.15l5.831-24.751h9.592l-10.569,39.761v26.444H117.796z"/>
	<path d="M44.829,205.503v-66.205h14.858c4.865,0,8.395,1.437,10.589,4.309c2.194,2.872,3.292,7.104,3.292,12.695l0.038,29.867
		c0,6.67-1.104,11.562-3.311,14.67c-2.207,3.109-5.855,4.664-10.946,4.664H44.829z M54.91,197.68h3.31
		c1.855,0,3.203-0.603,4.044-1.806c0.84-1.203,1.26-3.41,1.26-6.621l-0.038-32.688c0-3.435-0.42-5.88-1.26-7.334
		c-0.841-1.455-2.289-2.183-4.345-2.183H54.91V197.68z"/>
	<path d="M86.899,205.503v-66.205H96.98v66.205H86.899z"/>
	<path d="M117.609,205.503v-26.442l-11.097-39.763h9.63l6.545,24.752h0.15l5.83-24.752h9.592l-10.569,39.763v26.442H117.609z"/>
</g>
<path fill="none" stroke="#000000" stroke-width="3" stroke-miterlimit="10" d="M157.847,228.414h-138v-203h138V228.414z
	 M158.106,194.356l6.651-6.748 M151.358,187.608l6.653,6.748 M158.106,184.061l6.651-6.748 M151.358,177.313l6.653,6.748
	 M158.106,173.766l6.651-6.748 M151.358,167.018l6.653,6.748 M19.595,65.942l6.653,6.748 M19.5,65.942l-6.654,6.748 M19.595,76.236
	l6.653,6.749 M12.846,82.985l6.654-6.749 M19.595,86.532l6.653,6.748 M12.846,93.28l6.654-6.748"/>
</svg>
