<?xml version="1.0" encoding="utf-8"?>
<!-- Generator: Adobe Illustrator 16.0.3, SVG Export Plug-In . SVG Version: 6.00 Build 0)  -->
<!DOCTYPE svg PUBLIC "-//W3C//DTD SVG 1.1//EN" "http://www.w3.org/Graphics/SVG/1.1/DTD/svg11.dtd">
<svg version="1.1" id="Layer_1" xmlns="http://www.w3.org/2000/svg" xmlns:xlink="http://www.w3.org/1999/xlink" x="0px" y="0px"
	 width="93.617px" height="70.213px" viewBox="0 0 93.617 70.213" enable-background="new 0 0 93.617 70.213" xml:space="preserve">
<g>
	<path d="M11.567,59.634V10.579h14.454c5.054,0,9.001,1.124,11.842,3.369c2.842,2.246,4.262,5.593,4.262,10.04
		c0,2.336-0.517,4.408-1.549,6.216c-1.034,1.809-2.584,3.162-4.65,4.06c2.583,0.606,4.492,1.92,5.729,3.942
		c1.234,2.021,1.853,4.392,1.853,7.109c0,4.695-1.343,8.254-4.026,10.68s-6.531,3.639-11.539,3.639H11.567z M21.169,31.299h5.29
		c1.954-0.045,3.453-0.613,4.498-1.706c1.044-1.092,1.566-2.663,1.566-4.712c0-2.297-0.539-3.98-1.617-5.05
		s-2.707-1.604-4.885-1.604h-4.852V31.299z M21.169,38.004v13.982h6.772c2.021,0,3.532-0.561,4.531-1.685
		c1-1.123,1.5-2.796,1.5-5.02c0-2.336-0.427-4.132-1.28-5.391c-0.854-1.258-2.224-1.887-4.11-1.887H21.169z"/>
	<path d="M49.841,59.634V10.579h14.824c5.031,0,9.187,1.903,12.466,5.711c3.279,3.807,4.919,8.709,4.919,14.706v8.254
		c0,5.997-1.64,10.894-4.919,14.689c-3.279,3.796-7.435,5.694-12.466,5.694H49.841z M59.443,18.227v33.759h4.683
		c2.673,0,4.733-1.164,6.183-3.49c1.448-2.327,2.173-5.413,2.173-9.258v-8.33c0-3.822-0.725-6.891-2.173-9.207
		c-1.449-2.316-3.51-3.474-6.183-3.474H59.443z"/>
</g>
</svg>
